<?xml version="1.0" encoding="utf-8"?>
<!-- Generator: Adobe Illustrator 16.0.0, SVG Export Plug-In . SVG Version: 6.00 Build 0)  -->
<!DOCTYPE svg PUBLIC "-//W3C//DTD SVG 1.1//EN" "http://www.w3.org/Graphics/SVG/1.1/DTD/svg11.dtd">
<svg version="1.1" id="Layer_1" xmlns="http://www.w3.org/2000/svg" xmlns:xlink="http://www.w3.org/1999/xlink" x="0px" y="0px"
	 width="240.565px" height="56.752px" viewBox="0 0 240.565 56.752" enable-background="new 0 0 240.565 56.752"
	 xml:space="preserve">
<g>
	<path fill="#B9121B" d="M23.867,0C10.686,0,0,10.685,0,23.867c0,13.181,10.686,23.867,23.867,23.867s23.866-10.687,23.866-23.867
		C47.733,10.685,37.048,0,23.867,0z M33.977,25.075l-14.148,8.202c-1.118,0.647-2.015,0.119-2.015-1.173V15.757
		c0-1.292,0.898-1.822,2.018-1.178L34,22.728C35.121,23.372,35.095,24.427,33.977,25.075z"/>
	<path fill="#C74149" d="M23.867,0C10.686,0,0,10.685,0,23.867c0,13.181,10.686,23.867,23.867,23.867s23.867-10.687,23.867-23.867
		C47.733,10.685,37.048,0,23.867,0z M23.867,44.13c-11.192,0-20.264-9.072-20.264-20.264c0-11.192,9.072-20.264,20.264-20.264
		c11.191,0,20.264,9.072,20.264,20.264C44.131,35.058,35.058,44.13,23.867,44.13z"/>
	<g>
		<path fill="#FDFFF8" d="M63.373,34.215c-0.496,1.42-1.047,2.65-1.653,3.692c-0.607,1.042-1.24,1.923-1.897,2.641
			c-0.658,0.718-1.333,1.299-2.026,1.743c-0.692,0.445-1.363,0.786-2.012,1.025c-0.65,0.24-1.27,0.401-1.859,0.487
			c-0.59,0.086-1.115,0.128-1.577,0.128c-0.786,0-1.521-0.119-2.205-0.358c-0.684-0.239-1.278-0.615-1.782-1.128
			s-0.902-1.162-1.192-1.948c-0.291-0.786-0.436-1.734-0.436-2.847c0-0.478,0.035-1.003,0.103-1.576
			c0.069-0.572,0.171-1.192,0.308-1.859L52.759,7.91l7.769-1.051l-6.025,28.356c-0.085,0.292-0.141,0.577-0.167,0.859
			c-0.026,0.282-0.039,0.56-0.039,0.833c0,0.734,0.171,1.243,0.513,1.525s0.88,0.424,1.615,0.424c0.513,0,1.013-0.116,1.5-0.347
			s0.936-0.552,1.346-0.962s0.777-0.9,1.103-1.474c0.324-0.572,0.589-1.192,0.795-1.859H63.373z"/>
		<path fill="#FDFFF8" d="M79.911,47.83c-0.376,1.88-0.919,3.401-1.628,4.564c-0.709,1.162-1.5,2.067-2.372,2.717
			s-1.782,1.086-2.73,1.308c-0.949,0.223-1.859,0.334-2.73,0.334c-0.804,0-1.56-0.107-2.27-0.32
			c-0.709-0.214-1.329-0.53-1.858-0.949c-0.53-0.419-0.953-0.948-1.27-1.589c-0.316-0.642-0.474-1.39-0.474-2.244
			c0-1.094,0.261-2.06,0.782-2.897c0.521-0.837,1.192-1.567,2.013-2.191c0.82-0.625,1.739-1.158,2.756-1.603
			s2.021-0.821,3.013-1.129l0.641-2.769c-0.769,0.82-1.671,1.504-2.705,2.051c-1.035,0.547-2.235,0.82-3.603,0.82
			c-0.906,0-1.778-0.145-2.615-0.436c-0.838-0.29-1.582-0.769-2.23-1.436c-0.65-0.666-1.171-1.539-1.564-2.615
			c-0.393-1.077-0.589-2.393-0.589-3.948c0-1.196,0.12-2.478,0.359-3.846c0.24-1.367,0.606-2.734,1.103-4.103
			c0.496-1.366,1.115-2.679,1.859-3.936c0.743-1.256,1.615-2.367,2.615-3.333c1-0.966,2.132-1.735,3.397-2.308
			c1.265-0.572,2.658-0.859,4.179-0.859c1.487,0,2.568,0.256,3.244,0.769c0.675,0.513,1.012,1.146,1.012,1.897v0.308l0.564-2.718
			h7.563l-5.205,24.357c0.803-0.273,1.53-0.603,2.18-0.987c0.649-0.385,1.243-0.872,1.782-1.461c0.539-0.59,1.026-1.296,1.461-2.116
			c0.436-0.82,0.833-1.804,1.192-2.948h2.205c-0.53,1.744-1.159,3.196-1.885,4.358c-0.727,1.163-1.5,2.116-2.32,2.859
			s-1.667,1.312-2.538,1.705c-0.872,0.394-1.718,0.691-2.539,0.896L79.911,47.83z M72.604,46.47
			c-0.684,0.257-1.333,0.534-1.949,0.834c-0.615,0.299-1.158,0.628-1.628,0.987c-0.47,0.358-0.847,0.757-1.128,1.192
			c-0.282,0.436-0.423,0.919-0.423,1.448c0,0.188,0.034,0.385,0.103,0.59c0.068,0.205,0.175,0.394,0.32,0.564
			c0.145,0.17,0.329,0.308,0.551,0.41s0.487,0.153,0.795,0.153c0.547,0,1.106-0.381,1.679-1.141c0.572-0.761,1.03-1.937,1.372-3.525
			L72.604,46.47z M77.757,22.319c0-0.154-0.035-0.341-0.103-0.564c-0.069-0.222-0.184-0.436-0.346-0.641
			c-0.163-0.205-0.381-0.38-0.654-0.526c-0.274-0.145-0.624-0.218-1.051-0.218c-0.735,0-1.432,0.239-2.09,0.718
			c-0.658,0.479-1.261,1.116-1.807,1.91c-0.547,0.794-1.035,1.697-1.461,2.705c-0.428,1.009-0.791,2.047-1.09,3.114
			c-0.299,1.069-0.525,2.121-0.679,3.154c-0.154,1.034-0.231,1.962-0.231,2.782c0,1.009,0.094,1.786,0.282,2.333
			c0.188,0.548,0.414,0.953,0.679,1.218c0.265,0.265,0.551,0.423,0.859,0.474c0.308,0.052,0.581,0.078,0.82,0.078
			c0.359,0,0.744-0.09,1.154-0.27s0.816-0.439,1.218-0.782c0.402-0.342,0.765-0.77,1.09-1.282s0.572-1.103,0.744-1.769
			L77.757,22.319z"/>
		<path fill="#FDFFF8" d="M109.216,35.215c-0.085,0.292-0.146,0.577-0.179,0.859c-0.035,0.282-0.052,0.56-0.052,0.833
			c0,0.734,0.175,1.243,0.526,1.525c0.35,0.282,0.893,0.424,1.628,0.424c0.239,0,0.453-0.017,0.641-0.052
			c0.188-0.034,0.359-0.094,0.513-0.18c-0.359,0.906-0.701,1.691-1.025,2.358c-0.325,0.667-0.684,1.219-1.077,1.654
			c-0.394,0.436-0.842,0.761-1.346,0.975c-0.505,0.213-1.098,0.319-1.782,0.319c-1.454,0-2.625-0.422-3.513-1.269
			c-0.889-0.846-1.436-2.047-1.641-3.602c-0.394,0.599-0.851,1.188-1.372,1.768c-0.522,0.582-1.103,1.104-1.744,1.564
			c-0.641,0.462-1.354,0.834-2.141,1.116c-0.787,0.281-1.641,0.422-2.564,0.422c-0.906,0-1.778-0.145-2.615-0.436
			c-0.838-0.29-1.581-0.769-2.23-1.436c-0.65-0.666-1.171-1.539-1.564-2.615c-0.393-1.077-0.59-2.393-0.59-3.948
			c0-1.196,0.12-2.478,0.359-3.846c0.24-1.367,0.606-2.734,1.103-4.103c0.496-1.366,1.115-2.679,1.859-3.936
			c0.743-1.256,1.615-2.367,2.615-3.333c1-0.966,2.132-1.735,3.397-2.308c1.264-0.572,2.658-0.859,4.179-0.859
			c1.487,0,2.568,0.256,3.244,0.769c0.675,0.513,1.013,1.146,1.013,1.897v0.385l0.564-2.795h7.563L109.216,35.215z M104.37,22.37
			c0-0.154-0.035-0.346-0.103-0.576c-0.068-0.231-0.184-0.453-0.346-0.667c-0.163-0.213-0.38-0.393-0.654-0.538
			c-0.274-0.145-0.624-0.218-1.051-0.218c-0.735,0-1.432,0.239-2.089,0.718c-0.659,0.479-1.261,1.116-1.808,1.91
			c-0.547,0.794-1.034,1.697-1.461,2.705c-0.428,1.009-0.791,2.047-1.09,3.114c-0.299,1.069-0.525,2.121-0.679,3.154
			c-0.154,1.034-0.231,1.962-0.231,2.782c0,1.009,0.094,1.786,0.282,2.333c0.188,0.548,0.414,0.953,0.679,1.218
			c0.265,0.265,0.551,0.423,0.859,0.474c0.308,0.052,0.581,0.078,0.82,0.078c0.393,0,0.808-0.099,1.244-0.295
			c0.436-0.197,0.854-0.487,1.257-0.872c0.401-0.385,0.769-0.868,1.102-1.449c0.333-0.58,0.585-1.256,0.757-2.025L104.37,22.37z"/>
	</g>
	<g>
		<path fill="#B9121B" d="M141.445,43.625l3.358-23.587l-9.872,23.587h-7.203l1.051-23.69l-8.769,23.69h-4.205l13.333-36.074
			c-2.616,0.872-4.658,2.304-6.129,4.295c-1.469,1.992-2.205,4.5-2.205,7.525c0,0.701,0.039,1.261,0.116,1.68s0.157,0.752,0.243,1
			c0.086,0.248,0.167,0.436,0.244,0.564c0.076,0.127,0.115,0.252,0.115,0.372c-0.855,0-1.628-0.085-2.321-0.256
			c-0.692-0.17-1.282-0.444-1.769-0.821c-0.488-0.375-0.864-0.867-1.128-1.474c-0.265-0.606-0.397-1.346-0.397-2.218
			c0-1.111,0.226-2.23,0.679-3.359c0.453-1.128,1.077-2.209,1.872-3.243c0.794-1.034,1.73-2,2.807-2.897
			c1.077-0.898,2.235-1.68,3.474-2.346c1.24-0.667,2.53-1.188,3.873-1.564c1.341-0.376,2.679-0.564,4.012-0.564
			c1.316,0,2.641,0.248,3.974,0.743l-1.204,27.664l11.563-27.664h7.563l-5.512,38.638H141.445z"/>
		<path fill="#B9121B" d="M175.57,34.215c-0.734,1.231-1.577,2.428-2.525,3.59c-0.949,1.163-2.017,2.196-3.205,3.103
			c-1.188,0.906-2.504,1.636-3.948,2.192c-1.444,0.555-3.029,0.832-4.756,0.832c-1.248,0-2.376-0.157-3.384-0.474
			c-1.01-0.315-1.872-0.808-2.591-1.475c-0.717-0.666-1.269-1.525-1.653-2.576c-0.385-1.052-0.576-2.32-0.576-3.808
			c0-1.009,0.103-2.17,0.308-3.487c0.205-1.315,0.529-2.666,0.974-4.051s1.034-2.743,1.77-4.076
			c0.734-1.333,1.623-2.525,2.666-3.577c1.042-1.052,2.266-1.897,3.666-2.539c1.401-0.641,3-0.961,4.795-0.961
			c1.18,0,2.141,0.141,2.885,0.423c0.743,0.282,1.333,0.653,1.769,1.115c0.437,0.461,0.735,0.996,0.897,1.603
			s0.244,1.235,0.244,1.884c0,1.521-0.334,2.936-1,4.243c-0.667,1.309-1.561,2.449-2.68,3.423c-1.119,0.975-2.406,1.761-3.858,2.359
			c-1.453,0.599-2.966,0.949-4.538,1.052c-0.035,0.394-0.064,0.765-0.09,1.114c-0.025,0.352-0.038,0.68-0.038,0.987
			c0,0.889,0.08,1.619,0.243,2.192c0.162,0.573,0.401,1.021,0.718,1.347c0.316,0.324,0.709,0.551,1.18,0.679
			c0.47,0.128,1.021,0.192,1.653,0.192c1.042,0,1.987-0.137,2.833-0.41c0.847-0.272,1.638-0.649,2.372-1.129
			c0.734-0.478,1.432-1.042,2.089-1.691c0.658-0.649,1.321-1.343,1.987-2.077H175.57z M161.238,30.498
			c0.99-0.067,1.949-0.35,2.872-0.846s1.733-1.141,2.436-1.936c0.7-0.795,1.26-1.701,1.679-2.719
			c0.419-1.017,0.629-2.071,0.629-3.166c0-0.649-0.095-1.171-0.283-1.564s-0.529-0.59-1.025-0.59c-0.666,0-1.32,0.321-1.961,0.961
			c-0.641,0.642-1.243,1.474-1.808,2.5c-0.563,1.026-1.064,2.184-1.5,3.475C161.84,27.904,161.494,29.2,161.238,30.498z"/>
		<path fill="#B9121B" d="M203.542,34.215c-0.497,1.42-1.035,2.641-1.615,3.666c-0.581,1.026-1.185,1.885-1.808,2.577
			c-0.624,0.692-1.261,1.248-1.91,1.667c-0.65,0.418-1.282,0.739-1.897,0.961c-0.615,0.223-1.205,0.368-1.769,0.436
			c-0.564,0.068-1.077,0.103-1.539,0.103c-1.453,0-2.624-0.379-3.512-1.141c-0.89-0.761-1.437-1.884-1.642-3.371
			c-0.394,0.599-0.842,1.185-1.346,1.756c-0.505,0.573-1.077,1.086-1.719,1.539c-0.641,0.453-1.354,0.82-2.141,1.103
			c-0.786,0.281-1.641,0.422-2.563,0.422c-0.906,0-1.778-0.145-2.615-0.436c-0.838-0.29-1.581-0.769-2.23-1.436
			c-0.65-0.666-1.171-1.539-1.564-2.615c-0.393-1.077-0.589-2.393-0.589-3.948c0-1.196,0.119-2.478,0.358-3.846
			c0.239-1.367,0.606-2.734,1.103-4.103c0.496-1.366,1.115-2.679,1.858-3.936c0.744-1.256,1.615-2.367,2.615-3.333
			c1-0.966,2.132-1.735,3.397-2.308c1.266-0.572,2.657-0.859,4.18-0.859c1.486,0,2.567,0.256,3.243,0.769
			c0.675,0.513,1.013,1.146,1.013,1.897v0.205l2.563-12.076l7.77-1.051l-6.025,28.356c-0.086,0.292-0.146,0.577-0.18,0.859
			c-0.035,0.282-0.051,0.56-0.051,0.833c0,0.734,0.174,1.243,0.524,1.525s0.894,0.424,1.629,0.424c0.513,0,0.986-0.116,1.422-0.347
			c0.437-0.23,0.83-0.552,1.18-0.962c0.351-0.41,0.663-0.9,0.937-1.474c0.272-0.572,0.513-1.192,0.718-1.859H203.542z
			 M187.799,34.215l2.564-12.025c-0.035-0.153-0.09-0.333-0.167-0.538s-0.191-0.405-0.346-0.602
			c-0.153-0.196-0.363-0.36-0.629-0.487c-0.265-0.128-0.603-0.192-1.013-0.192c-0.734,0-1.432,0.239-2.089,0.718
			c-0.658,0.479-1.261,1.116-1.808,1.91c-0.548,0.794-1.034,1.697-1.462,2.705c-0.427,1.009-0.79,2.047-1.09,3.114
			c-0.299,1.069-0.525,2.121-0.679,3.154c-0.154,1.034-0.23,1.962-0.23,2.782c0,1.009,0.093,1.786,0.281,2.333
			c0.188,0.548,0.414,0.953,0.68,1.218c0.265,0.265,0.551,0.423,0.858,0.474c0.308,0.052,0.581,0.078,0.821,0.078
			c0.359,0,0.756-0.09,1.191-0.27c0.437-0.18,0.855-0.448,1.257-0.809c0.401-0.358,0.77-0.811,1.103-1.358
			c0.333-0.547,0.586-1.188,0.756-1.923V34.215z"/>
		<path fill="#B9121B" d="M217.568,34.215c-0.497,1.42-1.048,2.65-1.654,3.692c-0.607,1.042-1.239,1.923-1.897,2.641
			s-1.333,1.299-2.026,1.743c-0.691,0.445-1.362,0.786-2.012,1.025c-0.65,0.24-1.27,0.401-1.859,0.487s-1.114,0.128-1.576,0.128
			c-0.786,0-1.522-0.119-2.205-0.358c-0.684-0.239-1.278-0.615-1.782-1.128s-0.901-1.162-1.191-1.948
			c-0.291-0.786-0.437-1.734-0.437-2.847c0-0.478,0.034-1.003,0.103-1.576c0.068-0.572,0.171-1.192,0.308-1.859l3.563-16.845h7.564
			l-3.77,17.845c-0.086,0.292-0.142,0.577-0.167,0.859s-0.038,0.56-0.038,0.833c0,0.734,0.17,1.243,0.513,1.525
			c0.342,0.282,0.881,0.424,1.615,0.424c0.513,0,1.013-0.116,1.5-0.347c0.486-0.23,0.937-0.552,1.347-0.962s0.777-0.9,1.103-1.474
			c0.324-0.572,0.589-1.192,0.794-1.859H217.568z M214.311,10.397c0,0.582-0.112,1.124-0.333,1.628
			c-0.223,0.505-0.526,0.94-0.911,1.308c-0.384,0.368-0.829,0.659-1.333,0.872s-1.047,0.32-1.628,0.32s-1.124-0.107-1.628-0.32
			s-0.945-0.504-1.32-0.872c-0.376-0.367-0.671-0.803-0.885-1.308c-0.214-0.504-0.32-1.046-0.32-1.628
			c0-0.581,0.106-1.124,0.32-1.628s0.509-0.949,0.885-1.333c0.375-0.385,0.816-0.688,1.32-0.91c0.504-0.222,1.047-0.333,1.628-0.333
			s1.124,0.111,1.628,0.333c0.504,0.223,0.949,0.525,1.333,0.91c0.385,0.384,0.688,0.829,0.911,1.333
			C214.199,9.273,214.311,9.816,214.311,10.397z"/>
		<path fill="#B9121B" d="M236.796,35.215c-0.086,0.292-0.146,0.577-0.18,0.859c-0.035,0.282-0.052,0.56-0.052,0.833
			c0,0.734,0.176,1.243,0.525,1.525c0.351,0.282,0.894,0.424,1.629,0.424c0.239,0,0.452-0.017,0.641-0.052
			c0.188-0.034,0.359-0.094,0.513-0.18c-0.358,0.906-0.701,1.691-1.025,2.358s-0.684,1.219-1.076,1.654
			c-0.395,0.436-0.843,0.761-1.347,0.975c-0.505,0.213-1.099,0.319-1.781,0.319c-1.453,0-2.625-0.422-3.514-1.269
			c-0.888-0.846-1.436-2.047-1.641-3.602c-0.394,0.599-0.851,1.188-1.372,1.768c-0.521,0.582-1.102,1.104-1.743,1.564
			c-0.641,0.462-1.354,0.834-2.141,1.116c-0.786,0.281-1.641,0.422-2.563,0.422c-0.906,0-1.778-0.145-2.615-0.436
			c-0.838-0.29-1.581-0.769-2.23-1.436c-0.65-0.666-1.171-1.539-1.564-2.615c-0.393-1.077-0.589-2.393-0.589-3.948
			c0-1.196,0.119-2.478,0.358-3.846c0.239-1.367,0.606-2.734,1.103-4.103c0.495-1.366,1.114-2.679,1.858-3.936
			c0.743-1.256,1.615-2.367,2.615-3.333c1-0.966,2.132-1.735,3.397-2.308c1.265-0.572,2.657-0.859,4.179-0.859
			c1.487,0,2.568,0.256,3.243,0.769c0.676,0.513,1.014,1.146,1.014,1.897v0.385l0.563-2.795h7.563L236.796,35.215z M231.951,22.37
			c0-0.154-0.035-0.346-0.104-0.576c-0.067-0.231-0.184-0.453-0.346-0.667c-0.162-0.213-0.381-0.393-0.653-0.538
			c-0.273-0.145-0.625-0.218-1.052-0.218c-0.734,0-1.432,0.239-2.09,0.718c-0.658,0.479-1.26,1.116-1.808,1.91
			c-0.547,0.794-1.034,1.697-1.461,2.705c-0.427,1.009-0.791,2.047-1.09,3.114c-0.299,1.069-0.525,2.121-0.679,3.154
			c-0.154,1.034-0.231,1.962-0.231,2.782c0,1.009,0.094,1.786,0.282,2.333c0.188,0.548,0.414,0.953,0.68,1.218
			c0.265,0.265,0.551,0.423,0.858,0.474c0.308,0.052,0.581,0.078,0.82,0.078c0.394,0,0.808-0.099,1.243-0.295
			c0.437-0.197,0.855-0.487,1.257-0.872c0.402-0.385,0.77-0.868,1.103-1.449c0.333-0.58,0.586-1.256,0.757-2.025L231.951,22.37z"/>
	</g>
</g>
</svg>
