<?xml version="1.0" encoding="utf-8"?>
<!-- Generator: Adobe Illustrator 16.0.0, SVG Export Plug-In . SVG Version: 6.00 Build 0)  -->
<!DOCTYPE svg PUBLIC "-//W3C//DTD SVG 1.1//EN" "http://www.w3.org/Graphics/SVG/1.1/DTD/svg11.dtd">
<svg version="1.1" id="Layer_1" xmlns="http://www.w3.org/2000/svg" xmlns:xlink="http://www.w3.org/1999/xlink" x="0px" y="0px"
	 width="100px" height="100px" viewBox="0 0 100 100" enable-background="new 0 0 100 100" xml:space="preserve">
<path fill="#666" d="M85,0H15C6.75,0,0,6.75,0,15v70c0,8.25,6.75,15,15,15h70c8.25,0,15-6.75,15-15V15C100,6.75,93.25,0,85,0z
	 M84.269,32.682c-0.135,2.982-0.353,7.863-0.486,10.844l-0.729,11.138c-0.134,2.98-2.457,3.692-4.864,1.284L68.167,45.926
	L36.413,77.68c-2.274,2.275-6.08,2.898-8.025,0.954l-5.657-5.657c-1.944-1.944-1.321-5.75,0.954-8.024l31.753-31.754L45.417,23.177
	c-2.408-2.408-1.696-4.73,1.286-4.864l11.015-0.609c2.981-0.134,7.922-0.413,10.904-0.545l10.955-0.55
	c2.981-0.134,5.313,2.197,5.179,5.178L84.269,32.682z"/>
</svg>
