<?xml version="1.0" encoding="utf-8"?>
<!-- Generator: Adobe Illustrator 16.0.0, SVG Export Plug-In . SVG Version: 6.00 Build 0)  -->
<!DOCTYPE svg PUBLIC "-//W3C//DTD SVG 1.1//EN" "http://www.w3.org/Graphics/SVG/1.1/DTD/svg11.dtd">
<svg version="1.1" id="Layer_1" xmlns="http://www.w3.org/2000/svg" xmlns:xlink="http://www.w3.org/1999/xlink" x="0px" y="0px"
	 width="300px" height="300px" viewBox="0 0 300 300" enable-background="new 0 0 300 300" xml:space="preserve">
<g>
	<circle fill="#395976" cx="220.001" cy="220" r="65.333"/>
	<g>
		<path fill="#F1F2F2" d="M222.422,198.96v-17.546h-11.326c-0.255,0.641-0.381,1.422-0.381,2.202
			c-0.118,0.381-0.259,0.657-0.259,1.036c-1.16,6.507-4.541,11.046-10.265,13.525c-1.699,0.783-3.259,0.902-4.94,0.783v14.146h8.322
			c0.136,19.905,0.136,30.167,0.136,30.688v1.18c1.044,8.685,5.585,13.89,13.646,15.846c3.243,0.899,6.748,1.3,10.265,1.3
			c4.542-0.14,8.963-0.919,13.385-2.337v-16.647c-2.583,0.78-4.938,1.438-7.018,2.08c-4.025,1.177-7.405,0.397-10.147-2.202
			c-0.259-0.396-0.642-0.92-0.776-1.44c-0.384-2.077-0.627-4.283-0.627-6.36v-22.107h18.048V198.96H222.422z"/>
	</g>
</g>
<g>
	<circle fill="#CB2027" cx="80" cy="220" r="64.997"/>
	<g>
		<path fill="#F1F2F2" d="M85.246,242.04c-4.914-0.381-6.979-2.816-10.832-5.156c-2.118,11.113-4.706,21.766-12.373,27.331
			c-2.37-16.796,3.474-29.411,6.188-42.801c-4.627-7.786,0.555-23.458,10.312-19.597c12.005,4.747-10.396,28.951,4.643,31.973
			c15.7,3.156,22.11-27.241,12.374-37.129c-14.069-14.276-40.95-0.325-37.645,20.111c0.805,4.996,5.968,6.513,2.063,13.406
			c-9.005-1.994-11.689-9.096-11.345-18.563c0.558-15.496,13.925-26.348,27.331-27.848c16.957-1.897,32.873,6.227,35.07,22.175
			C113.503,223.944,103.377,243.439,85.246,242.04L85.246,242.04z"/>
	</g>
</g>
<g>
	<circle fill="#55ACEE" cx="220" cy="80" r="65"/>
	<g>
		<path fill="#F1F2F2" d="M259.814,61.714c-2.786,1.235-5.782,2.07-8.924,2.443c3.207-1.922,5.671-4.964,6.832-8.594
			c-3.001,1.781-6.328,3.073-9.865,3.77c-2.835-3.018-6.873-4.905-11.344-4.905c-8.579,0-15.537,6.958-15.537,15.537
			c0,1.218,0.139,2.403,0.404,3.541c-12.913-0.647-24.36-6.833-32.024-16.235c-1.337,2.294-2.104,4.964-2.104,7.811
			c0,5.389,2.744,10.147,6.912,12.932c-2.546-0.079-4.943-0.778-7.038-1.944c-0.001,0.065-0.001,0.132-0.001,0.196
			c0,7.528,5.359,13.806,12.465,15.233c-1.304,0.357-2.678,0.546-4.093,0.546c-1.003,0-1.976-0.095-2.924-0.277
			c1.978,6.171,7.713,10.663,14.515,10.791c-5.318,4.167-12.017,6.65-19.297,6.65c-1.253,0-2.493-0.074-3.706-0.218
			c6.872,4.411,15.04,6.982,23.814,6.982c28.578,0,44.207-23.675,44.207-44.207c0-0.674-0.015-1.345-0.047-2.01
			C255.1,67.564,257.732,64.829,259.814,61.714L259.814,61.714z"/>
	</g>
</g>
<g>
	<circle fill="#3B5998" cx="80" cy="80" r="64.956"/>
	<path fill="#FFFFFF" d="M96.329,82.543h-11.59v42.462h-17.56V82.543h-8.353V67.62h8.353v-9.657c0-6.906,3.279-17.72,17.716-17.72
		l13.008,0.054v14.486h-9.437c-1.548,0-3.725,0.773-3.725,4.068v8.783h13.123L96.329,82.543z"/>
</g>
</svg>
