<?xml version="1.0" encoding="utf-8"?>
<!-- Generator: Adobe Illustrator 16.0.0, SVG Export Plug-In . SVG Version: 6.00 Build 0)  -->
<!DOCTYPE svg PUBLIC "-//W3C//DTD SVG 1.1//EN" "http://www.w3.org/Graphics/SVG/1.1/DTD/svg11.dtd">
<svg version="1.1" id="Layer_1" xmlns="http://www.w3.org/2000/svg" xmlns:xlink="http://www.w3.org/1999/xlink" x="0px" y="0px"
	 width="300px" height="300px" viewBox="0 0 300 300" enable-background="new 0 0 300 300" xml:space="preserve">
<g>
	<path fill="#336E7B" d="M111.027,267.863c1.676,7.293-3.512,14.708-11.585,16.563l0,0c-8.074,1.854-15.978-2.554-17.653-9.847
		L52.973,149.137c-1.675-7.293,3.512-14.708,11.586-16.563l0,0c8.074-1.855,15.978,2.554,17.652,9.846L111.027,267.863z"/>
	<path fill="#1A252F" d="M108.037,254.848c-0.89-3.874-4.629-6.342-8.496-5.718l-0.011-0.05c-0.16,0.047-0.317,0.099-0.482,0.137
		c-4.037,0.928-8.061-1.593-8.989-5.631c-0.038-0.164-0.061-0.328-0.087-0.492l-0.025,0.005l-10.298-44.833l-0.025,0.007
		c-0.026-0.165-0.049-0.329-0.087-0.493c-0.927-4.038-4.952-6.558-8.989-5.631c-4.037,0.928-6.558,4.951-5.63,8.989
		c0.038,0.164,0.088,0.321,0.137,0.481l-0.025,0.006l16.759,72.954c1.675,7.293,9.579,11.701,17.653,9.847
		c8.074-1.854,13.261-9.27,11.585-16.563l-2.878-12.528l-0.025,0.005C108.098,255.177,108.075,255.012,108.037,254.848z"/>
	<path fill="#22313F" d="M59,138.5c0,10.77-8.73,19.5-19.5,19.5l0,0c-10.77,0-19.5-8.73-19.5-19.5v-13c0-10.77,8.73-19.5,19.5-19.5
		l0,0c10.77,0,19.5,8.73,19.5,19.5V138.5z"/>
	<g>
		<path fill="#C74149" d="M204,175c0,5.5-4.5,10-10,10H50c-5.5,0-10-4.5-10-10V90c0-5.5,4.5-10,10-10h144c5.5,0,10,4.5,10,10V175z"
			/>
	</g>
	<path fill="#C74149" d="M251,102.833v59.334c16.385,0,29.667-13.282,29.667-29.667S267.385,102.833,251,102.833z"/>
	<path fill="#336E7B" d="M251,58.42c0-5.5,0-14.5,0-20V25.589c0-5.5-0.221-10.075-0.49-10.166c-0.271-0.091-4.577,1.72-9.571,4.025
		L132.08,69.688c-4.994,2.305-9.08,8.69-9.08,14.19v97.242c0,5.5,4.086,11.886,9.08,14.19l108.859,50.24
		c4.994,2.305,9.301,4.116,9.571,4.024c0.27-0.092,0.49-4.666,0.49-10.166V58.42z"/>
	<path fill="#22313F" d="M262,242.199c0,5.965-5.875,10.801-13.121,10.801h-0.484c-7.247,0-13.395-4.836-13.395-10.801V22.801
		C235,16.835,241.147,12,248.395,12h0.484C256.125,12,262,16.835,262,22.801V242.199z"/>
	<rect x="132.333" y="214.002" fill="#FF4D08" width="0" height="0.333"/>
	<path fill="#B9121B" d="M59,135c0,1.657-1.343,3-3,3l0,0c-1.657,0-3-1.343-3-3V97c0-1.657,1.343-3,3-3l0,0c1.657,0,3,1.343,3,3V135
		z"/>
	<path fill="#B9121B" d="M73,135c0,1.657-1.343,3-3,3l0,0c-1.657,0-3-1.343-3-3V97c0-1.657,1.343-3,3-3l0,0c1.657,0,3,1.343,3,3V135
		z"/>
	<path fill="#B9121B" d="M88,135c0,1.657-1.343,3-3,3l0,0c-1.657,0-3-1.343-3-3V97c0-1.657,1.343-3,3-3l0,0c1.657,0,3,1.343,3,3V135
		z"/>
	<path fill="#FDFFF8" d="M185.621,58.44c1.308,2.64,0.226,5.839-2.414,7.146l-31.668,15.67c-2.641,1.307-5.84,0.226-7.146-2.415
		l-0.146-0.298c-1.307-2.641-0.226-5.84,2.414-7.146l31.668-15.67c2.641-1.307,5.839-0.226,7.146,2.415L185.621,58.44z"/>
	<path fill="#FDFFF8" d="M201.681,50.308c1.347,2.723,0.231,6.021-2.49,7.369l-1.792,0.887c-2.723,1.347-6.022,0.232-7.369-2.49l0,0
		c-1.347-2.723-0.231-6.021,2.49-7.369l1.793-0.887C197.034,46.471,200.334,47.585,201.681,50.308L201.681,50.308z"/>
</g>
</svg>
