<?xml version="1.0" encoding="utf-8"?>
<!-- Generator: Adobe Illustrator 16.0.0, SVG Export Plug-In . SVG Version: 6.00 Build 0)  -->
<!DOCTYPE svg PUBLIC "-//W3C//DTD SVG 1.1//EN" "http://www.w3.org/Graphics/SVG/1.1/DTD/svg11.dtd">
<svg version="1.1" id="Layer_1" xmlns="http://www.w3.org/2000/svg" xmlns:xlink="http://www.w3.org/1999/xlink" x="0px" y="0px"
	 width="300px" height="300px" viewBox="0 0 300 300" enable-background="new 0 0 300 300" xml:space="preserve">
<path fill="#22313F" d="M285.4,95.05l-31.232,20.242c-8.646,5.612-8.421-3.961-8.421-3.961l-12.515-1.546L235.736,122H232v58h3.889
	l-2.578,12.805l12.459-1.546c0,0-0.233-9.707,8.412-4.095l31.229,20.22c2.479,1.609,4.589,0.507,4.589-2.45V97.5
	C290,94.542,287.881,93.44,285.4,95.05z"/>
<path fill="#22313F" d="M151,281.622c0,2.97-2.408,5.378-5.377,5.378h-3.245c-2.97,0-5.377-2.408-5.377-5.378v-75.244
	c0-2.97,2.408-5.378,5.377-5.378h3.245c2.97,0,5.377,2.408,5.377,5.378V281.622z"/>
<path fill="#22313F" d="M84.765,275.457c-2.092,2.091-5.514,2.091-7.605,0l-2.281-2.283c-2.092-2.091-2.092-5.513,0-7.604
	l53.237-53.238c2.092-2.092,5.514-2.092,7.606,0l2.281,2.281c2.092,2.092,2.092,5.514,0,7.604L84.765,275.457z"/>
<path fill="#22313F" d="M213.292,265.568c2.091,2.093,2.091,5.515,0,7.604l-2.282,2.283c-2.092,2.091-5.514,2.091-7.604,0
	l-53.239-53.239c-2.091-2.092-2.091-5.514,0-7.604l2.282-2.282c2.092-2.093,5.514-2.093,7.604,0L213.292,265.568z"/>
<path fill="#22313F" d="M216.814,46.584l-4.313-4.312l0.351-0.468l-1.545-0.583c0,0,0.119,0.857-1.854,2.83l-21.689,21.69
	c-5.097,5.095-7.893,1.302-7.959,1.208l-22.996-31.308c-1.053-1.43-3.363-2.641-5.14-2.641H84v19h57.876
	c1.775,0,4.087,1.392,5.139,2.821l29.665,40.444c1.053,1.43,3.082,1.794,4.512,0.743l10.396-7.62
	c1.43-1.051,1.739-3.067,0.688-4.497l-4.313-5.86c-0.121-0.173-1.012-1.585,0.74-3.337L209.497,53.9
	c1.801-1.795,1.854-0.773,1.854-0.773l2.174,0.358l-1.233-2.378L216.814,46.584z"/>
<rect x="19" y="103" fill="#22313F" width="29" height="32"/>
<path fill="#336E7B" d="M245,208.844c0,5.241-4.814,9.493-10.756,9.493H51.756c-5.941,0-10.756-4.25-10.756-9.493V87.493
	C41,82.25,45.815,78,51.756,78h182.488C240.186,78,245,82.25,245,87.493V208.844z"/>
<path fill="#336E7B" d="M35,103.756C35,97.815,30.185,93,24.245,93h-3.489C14.815,93,10,97.815,10,103.756v30.488
	C10,140.185,14.815,145,20.755,145h3.489C30.185,145,35,140.185,35,134.244V103.756z"/>
<path fill="#336E7B" d="M216.523,36.77c-2.955-0.166-5.523,2.083-5.523,4.998S211,49,211,52h0.152c0,3,2.494,5.464,5.447,5.298
	l58.063-3.154c2.953-0.166,5.336-1.741,5.336-3.635c0-1.894,0-4.958,0-6.808c0-1.851-2.422-3.501-5.375-3.667L216.523,36.77z"/>
<path fill="#FF6502" d="M109.129,52.39c-0.179,0.02-0.354,0.054-0.538,0.054h0.538V52.39z"/>
<path fill="#336E7B" d="M139.66,33.084c-0.185,0-0.66,0.034-0.66,0.054V33h-22.342H95.146H71.484c-5.916,0-10.756,4.176-10.756,9.5
	s4.84,9.5,10.756,9.5h23.662h3.697c4.916,0,5.005-3.354,4.934-4.354c-0.005-0.09-0.027,0.055-0.027-0.036
	c0-2.673,1.898-4.611,4.571-4.611H139v-0.29c0,0.02,0.476,0.054,0.66,0.054c2.673,0,4.84-2.167,4.84-4.84
	C144.5,35.251,142.333,33.084,139.66,33.084z"/>
<path fill="#22313F" d="M143,156.407c0,2.536-2.057,4.593-4.593,4.593H59.593c-2.537,0-4.593-2.057-4.593-4.593V97.593
	C55,95.056,57.057,93,59.593,93h78.813c2.537,0,4.593,2.056,4.593,4.593L143,156.407L143,156.407z"/>
<path fill="#22313F" d="M162,158.85c0,1.188-0.963,2.15-2.15,2.15h-3.697c-1.188,0-2.151-0.963-2.151-2.15v-63.7
	c0-1.188,0.963-2.15,2.151-2.15h3.697c1.188,0,2.15,0.963,2.15,2.15V158.85z"/>
<path fill="#22313F" d="M181,158.85c0,1.188-0.963,2.15-2.15,2.15h-3.699c-1.188,0-2.149-0.963-2.149-2.15v-63.7
	c0-1.188,0.963-2.15,2.149-2.15h3.699c1.188,0,2.15,0.963,2.15,2.15V158.85z"/>
<circle fill="#22313F" cx="60.998" cy="188.232" r="5.916"/>
<circle fill="#B9121B" cx="60.998" cy="205.441" r="5.916"/>
<circle fill="#22313F" cx="78.207" cy="188.232" r="5.916"/>
<circle fill="#22313F" cx="78.207" cy="205.441" r="5.916"/>
<circle fill="#B9121B" cx="95.416" cy="188.232" r="5.916"/>
<circle fill="#22313F" cx="95.416" cy="205.441" r="5.916"/>
<circle fill="#22313F" cx="112.625" cy="188.232" r="5.916"/>
<circle fill="#B9121B" cx="112.625" cy="205.441" r="5.916"/>
<circle fill="#22313F" cx="129.833" cy="205.441" r="5.916"/>
<circle fill="#22313F" cx="147.042" cy="205.441" r="5.916"/>
<circle fill="#22313F" cx="164.251" cy="205.441" r="5.916"/>
<path fill="#FDFFF8" d="M209.156,85c-1.184,0-2.156,0.679-2.156,1.862v1.076c0,1.183,0.973,2.063,2.156,2.063h21.511
	c1.183,0,2.333,1.057,2.333,2.24v6.453c0,1.184,0.786,2.307,1.969,2.307h1.076c1.184,0,1.955-1.124,1.955-2.307V86.862
	c0-1.183-0.771-1.862-1.955-1.862H209.156z"/>
<path fill="#FDFFF8" d="M202,87.849c0,1.188-0.963,2.151-2.15,2.151h-0.699c-1.188,0-2.149-0.963-2.149-2.151v-0.697
	c0-1.188,0.963-2.151,2.149-2.151h0.699c1.188,0,2.15,0.963,2.15,2.151V87.849z"/>
</svg>
